<svg xmlns="http://www.w3.org/2000/svg" width="294" height="93" viewBox="0 0 294 93"><defs><mask id="6h0bd" width="2" height="2" x="-1" y="-1"><path fill="#fff" d="M3 0h288v89H3z"/><path d="M11.924 0h270.13c7.69 0 11.04 6.112 7.634 13.334l-32.19 68.248c-1.96 4.155-7.976 7.417-13.5 7.417H49.979c-5.523 0-11.54-3.262-13.5-7.417L4.29 13.334C.883 6.112 4.234 0 11.924 0z"/></mask><filter id="6h0bc" width="314" height="117" x="-10" y="-13" filterUnits="userSpaceOnUse"><feOffset dy="2" in="SourceGraphic" result="FeOffset1234Out"/><feGaussianBlur in="FeOffset1234Out" result="FeGaussianBlur1235Out" stdDeviation="1.2 1.2"/></filter><linearGradient id="6h0be" x1="2.96" x2="290.96" y1="45" y2="44" gradientUnits="userSpaceOnUse"><stop offset="0" stop-color="#cecece"/><stop offset=".53" stop-color="#fff"/><stop offset="1" stop-color="#cecece"/></linearGradient><filter id="6h0ba" width="200%" height="200%" x="-50%" y="-50%"><feGaussianBlur in="SourceGraphic" result="FeGaussianBlur1257Out" stdDeviation="9 9"/></filter><mask id="6h0bb"><path fill="#fff" d="M11.924 0h270.13c7.69 0 11.04 6.112 7.634 13.334l-32.19 68.248c-1.96 4.155-7.976 7.417-13.5 7.417H49.979c-5.523 0-11.54-3.262-13.5-7.417L4.29 13.334C.883 6.112 4.234 0 11.924 0z"/></mask><filter id="6h0bf" width="200%" height="200%" x="-50%" y="-50%"><feGaussianBlur in="SourceGraphic" result="FeGaussianBlur1264Out" stdDeviation="0 0"/></filter><mask id="6h0bg"><path fill="#fff" d="M11.924 0h270.13c7.69 0 11.04 6.112 7.634 13.334l-32.19 68.248c-1.96 4.155-7.976 7.417-13.5 7.417H49.979c-5.523 0-11.54-3.262-13.5-7.417L4.29 13.334C.883 6.112 4.234 0 11.924 0z"/></mask><filter id="6h0bh" width="200%" height="200%" x="-50%" y="-50%"><feGaussianBlur in="SourceGraphic" result="FeGaussianBlur1274Out" stdDeviation="0 0"/></filter><mask id="6h0bi"><path fill="#fff" d="M11.924 0h270.13c7.69 0 11.04 6.112 7.634 13.334l-32.19 68.248c-1.96 4.155-7.976 7.417-13.5 7.417H49.979c-5.523 0-11.54-3.262-13.5-7.417L4.29 13.334C.883 6.112 4.234 0 11.924 0z"/></mask></defs><g><g><path fill="#6a6a6a" fill-opacity=".18" d="M-15 107V-18h324v125zM11.924 0C4.234 0 .884 6.112 4.29 13.334l32.19 68.248c1.96 4.155 7.976 7.417 13.5 7.417h194.02c5.523 0 11.54-3.262 13.5-7.417l32.189-68.248C293.094 6.112 289.743 0 282.053 0z" filter="url(#6h0ba)" mask="url(&quot;#6h0bb&quot;)"/><g filter="url(#6h0bc)"><path fill="none" d="M11.924 0h270.13c7.69 0 11.04 6.112 7.634 13.334l-32.19 68.248c-1.96 4.155-7.976 7.417-13.5 7.417H49.979c-5.523 0-11.54-3.262-13.5-7.417L4.29 13.334C.883 6.112 4.234 0 11.924 0z" mask="url(&quot;#6h0bd&quot;)"/><path fill-opacity=".32" d="M11.924 0h270.13c7.69 0 11.04 6.112 7.634 13.334l-32.19 68.248c-1.96 4.155-7.976 7.417-13.5 7.417H49.979c-5.523 0-11.54-3.262-13.5-7.417L4.29 13.334C.883 6.112 4.234 0 11.924 0z"/></g><path fill="#fff" d="M11.924 0h270.13c7.69 0 11.04 6.112 7.634 13.334l-32.19 68.248c-1.96 4.155-7.976 7.417-13.5 7.417H49.979c-5.523 0-11.54-3.262-13.5-7.417L4.29 13.334C.883 6.112 4.234 0 11.924 0z"/><path fill="url(#6h0be)" d="M11.924 0h270.13c7.69 0 11.04 6.112 7.634 13.334l-32.19 68.248c-1.96 4.155-7.976 7.417-13.5 7.417H49.979c-5.523 0-11.54-3.262-13.5-7.417L4.29 13.334C.883 6.112 4.234 0 11.924 0z"/><path fill="#6a6a6a" fill-opacity=".18" d="M-15 107V-18h324v125zM11.924 0C4.234 0 .884 6.112 4.29 13.334l32.19 68.248c1.96 4.155 7.976 7.417 13.5 7.417h194.02c5.523 0 11.54-3.262 13.5-7.417l32.189-68.248C293.094 6.112 289.743 0 282.053 0z" filter="url(#6h0ba)" mask="url(&quot;#6h0bb&quot;)"/><path fill="#fff" d="M3 93V12.82c.125 1.418.547 2.94 1.29 4.514l32.189 68.248c1.96 4.155 7.976 7.417 13.5 7.417h194.02c5.523 0 11.54-3.262 13.5-7.417l32.189-68.248c.797-1.69 1.224-3.319 1.312-4.823V93zM3-4h288v15.355C290.737 7.035 287.472 4 282.053 4H11.924C6.63 4 3.391 6.898 3 11.06zm0 16.82v-1.76a9.689 9.689 0 0 0 0 1.76zm288-1.465v1.156c.023-.394.023-.78 0-1.156z" filter="url(#6h0bf)" mask="url(&quot;#6h0bg&quot;)"/></g><g><path fill="#fff" d="M11.924 0h270.13c7.69 0 11.04 6.112 7.634 13.334l-32.19 68.248c-1.96 4.155-7.976 7.417-13.5 7.417H49.979c-5.523 0-11.54-3.262-13.5-7.417L4.29 13.334C.883 6.112 4.234 0 11.924 0z"/><path fill="#fff" fill-opacity=".65" d="M3 105V24.82c.125 1.418.547 2.94 1.29 4.514l32.189 68.248c1.96 4.155 7.976 7.417 13.5 7.417h194.02c5.523 0 11.54-3.262 13.5-7.417l32.189-68.248c.797-1.69 1.224-3.319 1.312-4.823V105zM3-16h288v39.355c-.263-4.32-3.528-7.355-8.947-7.355H11.924C6.63 16 3.391 18.898 3 23.06zm0 40.82v-1.76a9.689 9.689 0 0 0 0 1.76zm288-1.465v1.156c.023-.394.023-.78 0-1.156z" filter="url(#6h0bh)" mask="url(&quot;#6h0bi&quot;)"/></g></g></svg>