<svg xmlns="http://www.w3.org/2000/svg" width="179" height="56" viewBox="0 0 179 56"><defs><filter id="ub6aa" width="200%" height="200%" x="-50%" y="-50%"><feGaussianBlur in="SourceGraphic" result="FeGaussianBlur1212Out" stdDeviation="0 0"/></filter><mask id="ub6ab"><path fill="#fff" d="M5.516.601h167.323c4.763 0 6.839 3.807 4.729 8.306l-19.939 42.514c-1.214 2.588-4.94 4.62-8.362 4.62H29.087c-3.42 0-7.147-2.032-8.361-4.62L.787 8.907C-1.323 4.408.753.601 5.516.601z"/></mask><clipPath id="ub6ac"><path fill="#fff" d="M5.516.601h167.323c4.763 0 6.839 3.807 4.729 8.306l-19.939 42.514c-1.214 2.588-4.94 4.62-8.362 4.62H29.087c-3.42 0-7.147-2.032-8.361-4.62L.787 8.907C-1.323 4.408.753.601 5.516.601z"/></clipPath></defs><g><g><path fill="#5ebce5" d="M5.516.601h167.323c4.763 0 6.839 3.807 4.729 8.306l-19.939 42.514c-1.214 2.588-4.94 4.62-8.362 4.62H29.087c-3.42 0-7.147-2.032-8.361-4.62L.787 8.907C-1.323 4.408.753.601 5.516.601z"/><path fill="#fff" fill-opacity=".42" d="M0 61V11.216c.09.849.348 1.755.787 2.691l19.939 42.514c1.112 2.373 4.336 4.278 7.501 4.579zM0-5h179v66h-28.872c3.165-.301 6.388-2.206 7.501-4.579l19.939-42.514c2.11-4.499.034-8.306-4.73-8.306H5.517C2.284 5.601.289 7.354 0 9.886zm29.088 66.042h120.18c.285 0 .572-.015.86-.042H28.227c.288.027.575.042.86.042zM0 11.216v-1.33a6.07 6.07 0 0 0 0 1.33z" filter="url(#ub6aa)" mask="url(&quot;#ub6ab&quot;)"/><path fill="none" stroke="#0e6497" stroke-linecap="round" stroke-linejoin="round" stroke-miterlimit="20" stroke-opacity=".71" stroke-width="4" d="M5.516.601h167.323c4.763 0 6.839 3.807 4.729 8.306l-19.939 42.514c-1.214 2.588-4.94 4.62-8.362 4.62H29.087c-3.42 0-7.147-2.032-8.361-4.62L.787 8.907C-1.323 4.408.753.601 5.516.601z" clip-path="url(&quot;#ub6ac&quot;)"/></g></g></svg>